<?xml version="1.0" encoding="UTF-8"?>
<svg id="Bison" xmlns="http://www.w3.org/2000/svg" xmlns:xlink="http://www.w3.org/1999/xlink" viewBox="0 0 4676.48 3728.11">
  <defs>
    <style>
      .cls-1 {
        stroke-width: 2.64px;
      }

      .cls-1, .cls-2 {
        fill: #ff9f1c;
      }

      .cls-1, .cls-3 {
        stroke: #ff9f1c;
        stroke-linecap: round;
        stroke-miterlimit: 7.99;
      }

      .cls-4 {
        fill: #a41623;
        filter: url(#drop-shadow-1);
      }

      .cls-5, .cls-6, .cls-3 {
        fill: none;
      }

      .cls-6 {
        clip-path: url(#clippath);
      }

      .cls-3 {
        stroke-width: 19px;
      }
    </style>
    <filter id="drop-shadow-1" filterUnits="userSpaceOnUse">
      <feOffset dx="-5" dy="5"/>
      <feGaussianBlur result="blur" stdDeviation="5"/>
      <feFlood flood-color="#000" flood-opacity=".5"/>
      <feComposite in2="blur" operator="in"/>
      <feComposite in="SourceGraphic"/>
    </filter>
    <clipPath id="clippath">
      <path id="path6658-2" data-name="path6658" class="cls-5" d="m1281.17,1635.64l-9.01,86.52,51.37,112.65,4.51,117.16-121.66,117.16-45.06-96.43-82.01-55.88-211.79,64.89-271.27-27.04-73.9-111.75-341.56-282.98-132.48-310.02-27.04-273.07,159.52-210.88,226.2-116.26-171.23-126.17,365.89,77.5,127.07-258.65,486.66-129.78L1720.06,9.85l414.56,124.37,485.76,351.47,300.1,110.85,640.76,121.66,315.43,202.77,372.2,301.91,73,335.25-7.21,345.17-152.31-210.88,67.59-270.36-83.81-155.91-194.66-118.96,95.53,490.26,177.54,319.93,75.7,413.66-95.53,54.07,32.44,129.78-306.41-3.6,74.8-206.38-71.2-221.7-120.76-134.28-267.66-153.21-215.39-223.5,6.31,343.36-31.54,98.23-227.11,403.74h-44.16l-31.54,98.23-353.28-2.7,32.44-82.01,80.21-46.86,175.74-291.99,19.83-65.79-45.96-72.1-287.49-132.48-221.7,50.47-394.73-31.54-128.87-53.17-11.72,44.16,99.13,9.91,71.2,76.6,76.6,1.8,110.85,150.5-28.84,113.55-221.7-5.41-167.63-129.78-45.06,298.3-52.27,57.68-69.39,32.44,5.41,73-302.81,2.7,17.12-116.26,133.38-182.95-63.09-371.3-148.7-246.93Z"/>
    </clipPath>
  </defs>
  <g id="g6662">
    <g id="g8855">
      <path id="path6658" class="cls-4" d="m1280.88,1635.85l-9.01,86.52,51.37,112.65,4.51,117.16-121.66,117.16-45.06-96.43-82.01-55.88-211.79,64.89-271.27-27.04-73.9-111.75-341.56-282.98-132.48-310.02-27.04-273.07,159.52-210.88,226.2-116.26-171.23-126.17,365.89,77.5,127.07-258.65,486.66-129.78L1719.77,10.05l414.56,124.37,485.76,351.47,300.1,110.85,640.76,121.66,315.43,202.77,372.2,301.91,73,335.25-7.21,345.17-152.31-210.88,67.59-270.36-83.81-155.91-194.66-118.96,95.53,490.26,177.54,319.93,75.7,413.66-95.53,54.07,32.44,129.78-306.41-3.6,74.8-206.38-71.2-221.7-120.76-134.28-267.66-153.21-215.39-223.5,6.31,343.36-31.54,98.23-227.11,403.74h-44.16l-31.54,98.23-353.28-2.7,32.44-82.01,80.21-46.86,175.74-291.99,19.83-65.79-45.96-72.1-287.49-132.48-221.7,50.47-394.73-31.54-128.87-53.17-11.72,44.16,99.13,9.91,71.2,76.6,76.6,1.8,110.85,150.5-28.84,113.55-221.7-5.41-167.63-129.78-45.06,298.3-52.27,57.68-69.39,32.44,5.41,73-302.81,2.7,17.12-116.26,133.38-182.95-63.09-371.3-148.7-246.93Z"/>
      <g class="cls-6">
        <g>
          <path id="path6660" class="cls-3" d="m1811.07,1315.52c0,41.88-33.95,75.83-75.83,75.83-41.88,0-75.83-33.95-75.83-75.83s33.95-75.83,75.83-75.83,75.83,33.95,75.83,75.83Zm91.76,413.58c0,17.6-14.27,31.86-31.86,31.86-17.6,0-31.86-14.27-31.86-31.86s14.27-31.86,31.86-31.86c17.6,0,31.86,14.27,31.86,31.86Zm140.2-241.52c0,31.32-25.39,56.72-56.72,56.72-31.32,0-56.72-25.39-56.72-56.72s25.39-56.72,56.72-56.72c31.32,0,56.72,25.39,56.72,56.72Zm101.96,114.07c0,23.23-18.83,42.06-42.06,42.06-23.23,0-42.06-18.83-42.06-42.06s18.83-42.06,42.06-42.06c23.23,0,42.06,18.83,42.06,42.06Zm242.16-237.7c0,32.03-25.96,57.99-57.99,57.99s-57.99-25.96-57.99-57.99,25.96-57.99,57.99-57.99,57.99,25.96,57.99,57.99Zm-22.94,386.18c0,15.13-12.27,27.4-27.4,27.4-15.13,0-27.4-12.27-27.4-27.4s12.27-27.4,27.4-27.4c15.13,0,27.4,12.27,27.4,27.4Zm-1.27-135.74c0,22.52-18.26,40.78-40.78,40.78-22.52,0-40.78-18.26-40.78-40.78s18.26-40.78,40.78-40.78,40.78,18.26,40.78,40.78Zm227.5,726.79c0,14.96-12.13,27.08-27.08,27.08s-27.08-12.13-27.08-27.08,12.13-27.08,27.08-27.08,27.08,12.13,27.08,27.08Zm251.59-324.57c0,14.68-11.9,26.59-26.59,26.59s-26.59-11.9-26.59-26.59,11.9-26.59,26.59-26.59,26.59,11.9,26.59,26.59Zm112.65,1072.9c0,22.4-18.16,40.55-40.55,40.55s-40.55-18.16-40.55-40.55,18.16-40.55,40.55-40.55,40.55,18.16,40.55,40.55Zm-19.83-144.19c0,13.44-10.89,24.33-24.33,24.33s-24.33-10.89-24.33-24.33,10.89-24.33,24.33-24.33,24.33,10.89,24.33,24.33Zm-23.43-175.74c0,24.89-20.17,45.06-45.06,45.06-24.89,0-45.06-20.17-45.06-45.06s20.17-45.06,45.06-45.06,45.06,20.17,45.06,45.06h0Zm64.89-129.78c0,15.93-12.91,28.84-28.84,28.84s-28.84-12.91-28.84-28.84,12.91-28.84,28.84-28.84c15.93,0,28.84,12.91,28.84,28.84Zm-10.82-195.56c0,36.33-29.45,65.79-65.79,65.79s-65.79-29.45-65.79-65.79,29.45-65.79,65.79-65.79,65.79,29.45,65.79,65.79Zm255.95-53.17c0,15.93-12.91,28.84-28.84,28.84-15.93,0-28.84-12.91-28.84-28.84s12.91-28.84,28.84-28.84,28.84,12.91,28.84,28.84Zm165.82,94.63c0,18.42-14.93,33.34-33.35,33.34s-33.35-14.93-33.35-33.34,14.93-33.35,33.35-33.35,33.35,14.93,33.35,33.35Zm360.49-459.62c0,25.38-20.58,45.96-45.96,45.96-25.38,0-45.96-20.58-45.96-45.96s20.58-45.96,45.96-45.96c25.38,0,45.96,20.58,45.96,45.96Zm-9.01,245.13c0,17.42-14.12,31.54-31.54,31.54s-31.54-14.12-31.54-31.54,14.12-31.54,31.54-31.54,31.54,14.12,31.54,31.54Zm-156.81,691.23c0,11.95-9.68,21.63-21.63,21.63s-21.63-9.68-21.63-21.63,9.68-21.63,21.63-21.63,21.63,9.68,21.63,21.63Zm183.85-250.54c0,16.92-13.72,30.64-30.64,30.64s-30.64-13.72-30.64-30.64,13.72-30.64,30.64-30.64,30.64,13.72,30.64,30.64Zm-5.41-276.67c0,18.42-14.93,33.35-33.35,33.35s-33.35-14.93-33.35-33.35,14.93-33.35,33.35-33.34c18.42,0,33.35,14.93,33.35,33.34Zm656.09-53.17c0,17.92-14.53,32.44-32.44,32.44-17.92,0-32.44-14.53-32.44-32.44s14.53-32.44,32.44-32.44c17.92,0,32.44,14.53,32.44,32.44Zm250.54-1079.66c0,44.8-36.31,81.11-81.11,81.11s-81.11-36.31-81.11-81.11,36.31-81.11,81.11-81.11,81.11,36.31,81.11,81.11Zm-187.45,190.16c0,17.42-14.12,31.54-31.54,31.54s-31.54-14.12-31.54-31.54,14.12-31.54,31.54-31.54c17.42,0,31.54,14.12,31.54,31.54Zm-126.17,123.47c0,23.89-19.37,43.26-43.26,43.26s-43.26-19.37-43.26-43.26,19.37-43.26,43.26-43.26,43.26,19.37,43.26,43.26Zm-126.17-343.36c0,32.35-26.23,58.58-58.58,58.58-32.35,0-58.58-26.23-58.58-58.58s26.23-58.58,58.58-58.58,58.58,26.23,58.58,58.58Zm-147.8,145.1c0,15.93-12.91,28.84-28.84,28.84s-28.84-12.91-28.84-28.84,12.91-28.84,28.84-28.84,28.84,12.91,28.84,28.84Zm-326.24,339.76c0,14.43-11.7,26.14-26.14,26.14s-26.14-11.7-26.14-26.14,11.7-26.14,26.14-26.14,26.14,11.7,26.14,26.14Zm-185.65,8.11c0,19.91-16.14,36.05-36.05,36.05s-36.05-16.14-36.05-36.05,16.14-36.05,36.05-36.05,36.05,16.14,36.05,36.05Zm410.95-220.8c0,25.38-20.58,45.96-45.96,45.96s-45.96-20.58-45.96-45.96,20.58-45.96,45.96-45.96,45.96,20.58,45.96,45.96Zm-201.87-298.3c0,23.89-19.37,43.26-43.26,43.26-23.89,0-43.26-19.37-43.26-43.26s19.37-43.26,43.26-43.26,43.26,19.37,43.26,43.26Zm-126.17,142.39c0,30.86-25.02,55.88-55.88,55.88s-55.88-25.02-55.88-55.88,25.02-55.88,55.88-55.88,55.88,25.02,55.88,55.88Zm-268.56-102.74c0,23.89-19.37,43.26-43.26,43.26-23.89,0-43.26-19.37-43.26-43.26s19.37-43.26,43.26-43.26,43.26,19.37,43.26,43.26Zm-120.76-164.92c0,46.29-37.52,83.81-83.81,83.81-46.29,0-83.81-37.52-83.81-83.81s37.52-83.81,83.81-83.81,83.81,37.52,83.81,83.81Zm-146,233.41c0,21.9-17.75,39.65-39.65,39.65s-39.65-17.75-39.65-39.65,17.75-39.65,39.65-39.65,39.65,17.75,39.65,39.65Zm-135.18-152.31c0,23.39-18.96,42.36-42.36,42.36s-42.36-18.96-42.36-42.36,18.96-42.36,42.36-42.36,42.36,18.96,42.36,42.36Zm-90.12,200.97c0,15.93-12.91,28.84-28.84,28.84s-28.84-12.91-28.84-28.84,12.91-28.84,28.84-28.84,28.84,12.91,28.84,28.84Zm-64.89-79.31c0,36.83-29.86,66.69-66.69,66.69s-66.69-29.86-66.69-66.69,29.86-66.69,66.69-66.69,66.69,29.86,66.69,66.69Zm-173.03,164.92c0,18.42-14.93,33.35-33.35,33.34-18.42,0-33.35-14.93-33.35-33.34s14.93-33.34,33.35-33.35c18.42,0,33.35,14.93,33.35,33.35Zm-122.57-277.57c0,30.36-24.61,54.97-54.97,54.97s-54.97-24.61-54.97-54.97,24.61-54.97,54.97-54.97,54.97,24.61,54.97,54.97Zm-659.6,891.15v-336.47m448.63,795.3l-583.73-583.73v-578.63m828.43,1401.96v-428.24m5.1,1243.92v-810.59l-247.26-247.26v-420.59l-217.94-217.94v-271.47m307.16,1315.3l-163.14-163.14v-382.35l-71.37-71.37v-234.51l-188.63-188.63-.45-378.75m433.78,582.67l89.22-89.22-173.33-173.33v-84.12m-53.53-372.16l-50.98,50.98v469.02l191.18,191.18v1506.47m48.43-1865.89l-117.89-117.25m260.64,377.26l-140.2-140.2v-609.22m145.29,253.49v657.65l73.92,65.14v1414.71m63.72-1514.12v-755.47m107.06,230.37v-188.63m1723.14,550.59v-596.47m-520,2212.55v-800.39l522.55-522.55v-298.24m-634.71,132.55l217.94-220.49-3.82-559.51m-173.33,1254.12v-142.75l191.18-191.18-1.27-158.04,126.18-124.9v-305.88m-239.61,846.28h183.53l99.41-99.41m-440.98,1205.69v-948.24l420.59-420.59v-79.02l115.98-115.98-.64-164.41-.64-361.96m-718.82,535.29l71.37,66.27v1514.12m-3.82-1280.88l-65-62.45m109.61-425.69l206.47-206.47v-221.77m-211.57,290.59l-73.92-73.92v-308.43l-16.83-62.81m-184.54,2351.84v-555.69l158.04-158.04v-127.45l81.29-53.46.64-247.33,154.99-145.43v-242.02l-118.46-118.46v-350.56l58.02-58.02m-431.39,2081.95v-611.77l73.92-73.92m-466.47-1333.14l-135.1-135.1v-262.55m38.24,484.31l-112.16-112.16m336.47,382.04l-231.66-128.34v-121.15l108.18-108.18v-243.58m398.77,1177.65l220.19-127.13m-271.17,483.99l150.39-150.39h84.12l49.71-49.71m-360.69,944.41v-412.94l71.37-71.37v-494.51l53.69-31v-279.98l115.9-115.9v-271.55l142.07-142.07v-77.15m-464.6,545.49l145.29-145.29v-170.78l121.08-121.08v-93.04m-465.2,1294.9l-135.1-135.1m130-2.55l-155.49-155.49m162.42-195.06l-124.18-113.37m397.65-875.59v-149.12l-165.69-165.69v-94.31m196.27,112.16l66.27,66.27v137.65l-231.96,231.96v257.14l-136.37,141.78v1556.18m-314.8-1386.67l140.27-219.58-61.25-68.46m206.47,1307.65l-282.94-282.94v-925.3m548.04,1560v-795.3l43.33-43.33v-155.49l-87.94-87.94v-748.14l333.28-333.28v-84.75m-390.64,2253.34v-932.94l150.39-150.39v-94.31m-415.49,596.47l165.69,165.69m-155.49-614.31v50.98l175.88,175.88m-79.02,818.24v-356.86l84.12-84.12v-823.33l42.06-42.06m-1629.05,8.27c0,18.42,14.93,33.34,33.35,33.34,18.42,0,33.34-14.93,33.34-33.34s-14.93-33.35-33.34-33.35-33.35,14.93-33.35,33.35Zm-360.49-459.62c0,25.38,20.58,45.96,45.96,45.96s45.96-20.58,45.96-45.96-20.58-45.96-45.96-45.96-45.96,20.58-45.96,45.96Zm9.01,245.13c0,17.42,14.12,31.54,31.54,31.54s31.54-14.12,31.54-31.54-14.12-31.54-31.54-31.54-31.54,14.12-31.54,31.54Zm156.81,691.23c0,11.95,9.68,21.63,21.63,21.63s21.63-9.68,21.63-21.63-9.68-21.63-21.63-21.63-21.63,9.68-21.63,21.63Zm-183.85-250.54c0,16.92,13.72,30.64,30.64,30.64s30.64-13.72,30.64-30.64-13.72-30.64-30.64-30.64-30.64,13.72-30.64,30.64Zm5.41-276.67c0,18.42,14.93,33.35,33.35,33.35,18.42,0,33.34-14.93,33.34-33.35s-14.93-33.34-33.34-33.34-33.35,14.93-33.35,33.34Zm-656.09-53.17c0,17.92,14.53,32.44,32.44,32.44,17.92,0,32.44-14.53,32.44-32.44s-14.53-32.44-32.44-32.44-32.44,14.53-32.44,32.44Zm-169.43-998.55c0,44.8-44.8,0,0,0s0,44.8,0,0c0-44.8,44.8,0,0,0s0-44.8,0,0Zm106.34,109.05c0,17.42,14.12,31.54,31.54,31.54s31.54-14.12,31.54-31.54-14.12-31.54-31.54-31.54-31.54,14.12-31.54,31.54Zm126.17,123.47c0,23.89,19.37,43.26,43.26,43.26,23.89,0,43.26-19.37,43.26-43.26s-19.37-43.26-43.26-43.26-43.26,19.37-43.26,43.26Zm126.17-343.36c0,32.35,26.23,58.58,58.58,58.58s58.58-26.23,58.58-58.58-26.23-58.58-58.58-58.58-58.58,26.23-58.58,58.58Zm147.8,145.1c0,15.93,12.91,28.84,28.84,28.84s28.84-12.91,28.84-28.84-12.91-28.84-28.84-28.84-28.84,12.91-28.84,28.84Zm326.24,339.76c0,14.43,11.7,26.14,26.14,26.14s26.14-11.7,26.14-26.14c0-14.43-11.7-26.14-26.14-26.14s-26.14,11.7-26.14,26.14Zm185.65,8.11c0,19.91,16.14,36.05,36.05,36.05s36.05-16.14,36.05-36.05-16.14-36.05-36.05-36.05c-19.91,0-36.05,16.14-36.05,36.05Zm-410.95-220.8c0,25.38,20.58,45.96,45.96,45.96,25.38,0,45.96-20.58,45.96-45.96s-20.58-45.96-45.96-45.96-45.96,20.58-45.96,45.96Zm201.87-298.3c0,23.89,19.37,43.26,43.26,43.26s43.26-19.37,43.26-43.26-19.37-43.26-43.26-43.26-43.26,19.37-43.26,43.26Zm126.17,142.39c0,30.86,25.02,55.88,55.88,55.88s55.88-25.02,55.88-55.88-25.02-55.88-55.88-55.88-55.88,25.02-55.88,55.88Zm268.56-102.74c0,23.89,19.37,43.26,43.26,43.26s43.26-19.37,43.26-43.26-19.37-43.26-43.26-43.26-43.26,19.37-43.26,43.26ZM344.78,1920.08v-596.47m137.65,504.71v-367.06m382.35,2074.9v-800.39l-522.55-522.55v-298.24m634.71,132.55l-217.94-220.49,3.82-559.51m173.33,1254.12v-142.75l-191.18-191.18,1.27-158.04-126.18-124.9v-305.88m239.61,846.28h-183.53l-99.41-99.41m440.98,1205.69v-948.24l-420.59-420.59v-79.02l-115.98-115.98v-169.51m648.73,249.8l71.37-71.37m-61.18,295.69l58.63-58.63m-68.82-175.88v1519.22m-40.78-1769.02l-206.47-206.47v-221.77m486.86,2197.26v-555.69l-158.04-158.04v-127.45l-81.29-49v-247.96l-155.63-149.26v-242.02l118.46-118.46v-350.56l-58.02-58.02m59.23,149.79l73.92-73.92v-308.43l16.83-62.81m281.41,2377.33v-611.77l-73.92-73.92m63.73-400.2l-220.19-127.13m271.17,483.99l-150.39-150.39h-84.12l-49.71-49.71m360.69,944.41v-412.94l-71.37-71.37v-494.51l-53.69-31v-279.98l-115.9-115.9v-271.55l-142.07-142.07v-77.15m464.6,545.49l-145.29-145.29v-170.78l-121.08-121.08v-93.04m159.31-479.22l-66.27,66.27v137.65l231.96,231.96m-99.41,1939.81v-795.3l-43.33-43.33v-155.49l87.94-87.94v-748.14l-333.28-333.28v-84.75m390.64,2253.34v-932.94l-150.39-150.39v-94.31"/>
          <polygon class="cls-5" points="1281.17 1635.64 1272.15 1722.16 1323.52 1834.81 1328.03 1951.97 1206.37 2069.12 1161.3 1972.69 1079.29 1916.82 867.51 1981.71 596.24 1954.67 522.34 1842.92 180.78 1559.94 48.3 1249.92 21.27 976.85 180.78 765.97 406.99 649.71 235.76 523.54 601.65 601.04 728.72 342.39 1215.38 212.62 1720.06 9.85 2134.62 134.21 2620.37 485.69 2920.48 596.54 3561.24 718.2 3876.67 920.98 4248.87 1222.88 4321.87 1558.13 4314.66 1903.3 4162.35 1692.42 4229.94 1422.05 4146.13 1266.14 3951.47 1147.18 4047 1637.44 4224.54 1957.37 4300.24 2371.03 4204.71 2425.1 4237.15 2554.88 3930.74 2551.27 4005.54 2344.9 3934.34 2123.2 3813.58 1988.92 3545.92 1835.71 3330.53 1612.21 3336.84 1955.57 3305.3 2053.8 3078.19 2457.55 3034.03 2457.55 3002.49 2555.78 2649.21 2553.08 2681.65 2471.07 2761.86 2424.2 2937.6 2132.21 2957.43 2066.42 2911.46 1994.32 2623.98 1861.84 2402.28 1912.31 2007.55 1880.77 1878.67 1827.6 1866.96 1871.76 1966.09 1881.67 2037.29 1958.27 2113.89 1960.08 2224.74 2110.58 2195.9 2224.13 1974.2 2218.73 1806.57 2088.95 1761.51 2387.25 1709.24 2444.93 1639.85 2477.37 1645.26 2550.37 1342.45 2553.08 1359.57 2436.82 1492.95 2253.87 1429.87 1882.57 1281.17 1635.64"/>
        </g>
      </g>
      <g>
        <g>
          <path class="cls-2" d="m506.03,1174.2v41.71c-10.08,4.07-20.12,8.21-30.25,12.16-2.45.96-3.76,2.38-4.42,4.92-2.97,11.45-7.5,22.29-13.45,32.52-1.26,2.17-1.32,4-.33,6.28,4,9.26,7.77,18.61,11.78,27.87,1.01,2.33.64,3.86-1.14,5.61-8.08,7.93-16.11,15.91-24,24.03-2,2.06-3.71,2.2-6.19,1.09-9.19-4.15-18.49-8.06-27.69-12.2-2.15-.97-3.89-1.01-5.96.22-10.38,6.14-21.45,10.69-33.09,13.82-2.31.62-3.61,1.82-4.46,4.01-3.66,9.4-7.51,18.72-11.14,28.13-.91,2.36-2.22,3.23-4.74,3.2-11.43-.11-22.87-.11-34.3,0-2.55.03-3.81-.92-4.73-3.24-3.53-8.97-7.32-17.83-10.8-26.82-1.11-2.87-2.69-4.46-5.78-5.28-11.32-3-22.04-7.56-32.12-13.53-2.09-1.24-3.82-1.21-5.96-.27-9.12,4.03-18.35,7.83-27.45,11.91-2.63,1.18-4.4.99-6.48-1.15-7.73-7.96-15.56-15.83-23.55-23.53-2.27-2.19-2.41-4.03-1.18-6.76,4.1-9.09,7.92-18.31,11.95-27.43.94-2.13.99-3.87-.25-5.97-6-10.2-10.49-21.06-13.52-32.49-.71-2.66-2.06-4.19-4.62-5.18-9.2-3.54-18.3-7.34-27.51-10.87-2.48-.95-3.41-2.29-3.38-4.96.13-11.32.13-22.64,0-33.96-.03-2.7.97-3.99,3.41-4.96,9.07-3.58,18.03-7.42,27.1-11,2.42-.96,3.79-2.34,4.45-4.9,2.94-11.46,7.51-22.29,13.44-32.52,1.25-2.15,1.39-3.99.39-6.29-3.97-9.15-7.69-18.41-11.66-27.55-1.09-2.52-.84-4.22,1.19-6.19,8.03-7.82,15.96-15.75,23.78-23.78,1.97-2.02,3.65-2.3,6.18-1.17,9.31,4.16,18.71,8.11,28.06,12.19,1.71.75,3.23,1.14,5.06.07,10.8-6.32,22.29-10.99,34.36-14.27,1.51-.41,2.66-1.11,3.25-2.61,4.22-10.74,8.45-21.47,12.67-32.21,13.9,0,27.81,0,41.71,0,4.06,10.08,8.2,20.13,12.15,30.25.96,2.45,2.41,3.75,4.93,4.42,11.43,3.02,22.3,7.49,32.51,13.46,2.17,1.27,4.02,1.31,6.29.32,9.15-3.96,18.41-7.67,27.55-11.66,2.56-1.12,4.24-.74,6.18,1.24,7.83,8.02,15.75,15.95,23.78,23.77,2.04,1.99,2.23,3.7,1.12,6.19-4.16,9.31-8.12,18.71-12.2,28.05-.75,1.72-1.11,3.22-.03,5.05,6.33,10.79,11.05,22.26,14.26,34.35.44,1.67,1.32,2.77,2.91,3.39,10.64,4.17,21.27,8.35,31.9,12.53Zm-86.39,20.79c-.75-47.69-37.69-85.55-85.71-85.61-48.03-.06-86,37.86-85.77,86.05.23,47.96,38.06,85.21,85.55,85.27,48.01.06,85.23-37.76,85.93-85.72Z"/>
          <path class="cls-2" d="m333.8,1247.81c-29.42,0-52.73-23.3-52.74-52.7-.01-29.6,23.32-52.87,52.94-52.82,29.39.05,52.6,23.39,52.57,52.86-.03,29.41-23.34,52.67-52.78,52.66Z"/>
        </g>
        <g>
          <path class="cls-1" d="m1802.93,1310.94c0,41.88-33.95,75.83-75.83,75.83-41.88,0-75.83-33.95-75.83-75.83s33.95-75.83,75.83-75.83,75.83,33.95,75.83,75.83Z"/>
          <path class="cls-1" d="m3251.62,1122.98c0,41.88-33.95,75.83-75.83,75.83-41.88,0-75.83-33.95-75.83-75.83s33.95-75.83,75.83-75.83,75.83,33.95,75.83,75.83Z"/>
          <path class="cls-1" d="m2954.35,2438.41c0,41.88-33.95,75.83-75.83,75.83-41.88,0-75.83-33.95-75.83-75.83s33.95-75.83,75.83-75.83,75.83,33.95,75.83,75.83Z"/>
          <path class="cls-1" d="m1037.38,1476.76c0,20.94-16.98,37.92-37.92,37.92-20.94,0-37.92-16.98-37.92-37.92s16.98-37.92,37.92-37.92,37.92,16.98,37.92,37.92Z"/>
          <path class="cls-1" d="m2349.89,1611.98c0,20.94-16.98,37.92-37.92,37.92-20.94,0-37.92-16.98-37.92-37.92s16.98-37.92,37.92-37.92,37.92,16.98,37.92,37.92Z"/>
          <path class="cls-1" d="m3973.42,1543.17c0,20.94-16.98,37.92-37.92,37.92-20.94,0-37.92-16.98-37.92-37.92s16.98-37.92,37.92-37.92,37.92,16.98,37.92,37.92Z"/>
        </g>
      </g>
    </g>
  </g>
</svg>