<?xml version="1.0" encoding="UTF-8"?>
<svg id="Bison" xmlns="http://www.w3.org/2000/svg" xmlns:xlink="http://www.w3.org/1999/xlink" viewBox="0 0 4373.4 2156.86">
  <defs>
    <style>
      .cls-1 {
        stroke-width: 2.64px;
      }

      .cls-1, .cls-2 {
        stroke: #ff9f1c;
        stroke-linecap: round;
        stroke-miterlimit: 7.99;
      }

      .cls-1, .cls-3 {
        fill: #ff9f1c;
      }

      .cls-2 {
        stroke-width: 3px;
      }

      .cls-2, .cls-4, .cls-5 {
        fill: none;
      }

      .cls-6, .cls-7 {
        fill: #a41623;
      }

      .cls-7 {
        filter: url(#drop-shadow-1);
      }

      .cls-5 {
        clip-path: url(#clippath);
      }

      .cls-8 {
        fill: #fb9e00;
        font-family: Virgo01, 'Virgo 01';
        font-size: 117.6px;
        isolation: isolate;
      }
    </style>
    <filter id="drop-shadow-1" filterUnits="userSpaceOnUse">
      <feOffset dx="-5" dy="5"/>
      <feGaussianBlur result="blur" stdDeviation="5"/>
      <feFlood flood-color="#000" flood-opacity=".5"/>
      <feComposite in2="blur" operator="in"/>
      <feComposite in="SourceGraphic"/>
    </filter>
    <clipPath id="clippath">
      <path id="path6658-2" data-name="path6658" class="cls-4" d="m1861.56,1056.8l-1.42,13.65,8.1,17.77.71,18.48-19.19,18.48-7.11-15.21-12.94-8.81-33.41,10.24-42.79-4.27-11.66-17.63-53.88-44.64-20.9-48.91-4.27-43.08,25.16-33.27,35.69-18.34-27.01-19.9,57.72,12.23,20.05-40.8,76.77-20.47,79.62-31.99,65.4,19.62,76.63,55.45,47.34,17.49,101.08,19.19,49.76,31.99,58.72,47.63,11.52,52.89-1.14,54.45-24.03-33.27,10.66-42.65-13.22-24.6-30.71-18.77,15.07,77.34,28.01,50.47,11.94,65.26-15.07,8.53,5.12,20.47-48.34-.57,11.8-32.56-11.23-34.97-19.05-21.18-42.23-24.17-33.98-35.26,1,54.17-4.98,15.5-35.83,63.69h-6.97l-4.98,15.5-55.73-.43,5.12-12.94,12.65-7.39,27.72-46.06,3.13-10.38-7.25-11.37-45.35-20.9-34.97,7.96-62.27-4.98-20.33-8.39-1.85,6.97,15.64,1.56,11.23,12.08,12.08.28,17.49,23.74-4.55,17.91-34.97-.85-26.44-20.47-7.11,47.06-8.25,9.1-10.95,5.12.85,11.52-47.77.43,2.7-18.34,21.04-28.86-9.95-58.58-23.46-38.96Z"/>
    </clipPath>
  </defs>
  <g id="g6662">
    <g id="g8855">
      <path id="path6658" class="cls-7" d="m1861.52,1056.84l-1.42,13.65,8.1,17.77.71,18.48-19.19,18.48-7.11-15.21-12.94-8.81-33.41,10.24-42.79-4.27-11.66-17.63-53.88-44.64-20.9-48.91-4.27-43.08,25.16-33.27,35.69-18.34-27.01-19.9,57.72,12.23,20.05-40.8,76.77-20.47,79.62-31.99,65.4,19.62,76.63,55.45,47.34,17.49,101.08,19.19,49.76,31.99,58.72,47.63,11.52,52.89-1.14,54.45-24.03-33.27,10.66-42.65-13.22-24.6-30.71-18.77,15.07,77.34,28.01,50.47,11.94,65.26-15.07,8.53,5.12,20.47-48.34-.57,11.8-32.56-11.23-34.97-19.05-21.18-42.23-24.17-33.98-35.26,1,54.17-4.98,15.5-35.83,63.69h-6.97l-4.98,15.5-55.73-.43,5.12-12.94,12.65-7.39,27.72-46.06,3.13-10.38-7.25-11.37-45.35-20.9-34.97,7.96-62.27-4.98-20.33-8.39-1.85,6.97,15.64,1.56,11.23,12.08,12.08.28,17.49,23.74-4.55,17.91-34.97-.85-26.44-20.47-7.11,47.06-8.25,9.1-10.95,5.12.85,11.52-47.77.43,2.7-18.34,21.04-28.86-9.95-58.58-23.46-38.96Z"/>
      <g class="cls-5">
        <g>
          <path id="path6660" class="cls-2" d="m1945.16,1006.3c0,6.61-5.36,11.96-11.96,11.96-6.61,0-11.96-5.36-11.96-11.96s5.36-11.96,11.96-11.96,11.96,5.36,11.96,11.96Zm14.48,65.24c0,2.78-2.25,5.03-5.03,5.03-2.78,0-5.03-2.25-5.03-5.03s2.25-5.03,5.03-5.03c2.78,0,5.03,2.25,5.03,5.03Zm22.12-38.1c0,4.94-4.01,8.95-8.95,8.95-4.94,0-8.95-4.01-8.95-8.95s4.01-8.95,8.95-8.95c4.94,0,8.95,4.01,8.95,8.95Zm16.08,18c0,3.66-2.97,6.64-6.64,6.64-3.66,0-6.64-2.97-6.64-6.64s2.97-6.64,6.64-6.64c3.66,0,6.64,2.97,6.64,6.64Zm38.2-37.5c0,5.05-4.1,9.15-9.15,9.15s-9.15-4.1-9.15-9.15,4.1-9.15,9.15-9.15,9.15,4.1,9.15,9.15Zm-3.62,60.92c0,2.39-1.94,4.32-4.32,4.32-2.39,0-4.32-1.94-4.32-4.32s1.94-4.32,4.32-4.32c2.39,0,4.32,1.94,4.32,4.32Zm-.2-21.41c0,3.55-2.88,6.43-6.43,6.43-3.55,0-6.43-2.88-6.43-6.43s2.88-6.43,6.43-6.43,6.43,2.88,6.43,6.43Zm35.89,114.66c0,2.36-1.91,4.27-4.27,4.27s-4.27-1.91-4.27-4.27,1.91-4.27,4.27-4.27,4.27,1.91,4.27,4.27Zm39.69-51.2c0,2.32-1.88,4.19-4.19,4.19s-4.19-1.88-4.19-4.19,1.88-4.19,4.19-4.19,4.19,1.88,4.19,4.19Zm17.77,169.26c0,3.53-2.86,6.4-6.4,6.4s-6.4-2.86-6.4-6.4,2.86-6.4,6.4-6.4,6.4,2.86,6.4,6.4Zm-3.13-22.75c0,2.12-1.72,3.84-3.84,3.84s-3.84-1.72-3.84-3.84,1.72-3.84,3.84-3.84,3.84,1.72,3.84,3.84Zm-3.7-27.72c0,3.93-3.18,7.11-7.11,7.11-3.93,0-7.11-3.18-7.11-7.11s3.18-7.11,7.11-7.11,7.11,3.18,7.11,7.11h0Zm10.24-20.47c0,2.51-2.04,4.55-4.55,4.55s-4.55-2.04-4.55-4.55,2.04-4.55,4.55-4.55c2.51,0,4.55,2.04,4.55,4.55Zm-1.71-30.85c0,5.73-4.65,10.38-10.38,10.38s-10.38-4.65-10.38-10.38,4.65-10.38,10.38-10.38,10.38,4.65,10.38,10.38Zm40.38-8.39c0,2.51-2.04,4.55-4.55,4.55-2.51,0-4.55-2.04-4.55-4.55s2.04-4.55,4.55-4.55,4.55,2.04,4.55,4.55Zm26.16,14.93c0,2.91-2.36,5.26-5.26,5.26s-5.26-2.36-5.26-5.26,2.36-5.26,5.26-5.26,5.26,2.36,5.26,5.26Zm56.87-72.51c0,4-3.25,7.25-7.25,7.25-4,0-7.25-3.25-7.25-7.25s3.25-7.25,7.25-7.25c4,0,7.25,3.25,7.25,7.25Zm-1.42,38.67c0,2.75-2.23,4.98-4.98,4.98s-4.98-2.23-4.98-4.98,2.23-4.98,4.98-4.98,4.98,2.23,4.98,4.98Zm-24.74,109.05c0,1.88-1.53,3.41-3.41,3.41s-3.41-1.53-3.41-3.41,1.53-3.41,3.41-3.41,3.41,1.53,3.41,3.41Zm29-39.52c0,2.67-2.16,4.83-4.83,4.83s-4.83-2.16-4.83-4.83,2.16-4.83,4.83-4.83,4.83,2.16,4.83,4.83Zm-.85-43.65c0,2.91-2.36,5.26-5.26,5.26s-5.26-2.36-5.26-5.26,2.36-5.26,5.26-5.26c2.91,0,5.26,2.36,5.26,5.26Zm103.5-8.39c0,2.83-2.29,5.12-5.12,5.12-2.83,0-5.12-2.29-5.12-5.12s2.29-5.12,5.12-5.12c2.83,0,5.12,2.29,5.12,5.12Zm39.52-170.32c0,7.07-5.73,12.8-12.8,12.8s-12.8-5.73-12.8-12.8,5.73-12.8,12.8-12.8,12.8,5.73,12.8,12.8Zm-29.57,30c0,2.75-2.23,4.98-4.98,4.98s-4.98-2.23-4.98-4.98,2.23-4.98,4.98-4.98c2.75,0,4.98,2.23,4.98,4.98Zm-19.9,19.48c0,3.77-3.06,6.82-6.82,6.82s-6.82-3.06-6.82-6.82,3.06-6.82,6.82-6.82,6.82,3.06,6.82,6.82Zm-19.9-54.17c0,5.1-4.14,9.24-9.24,9.24-5.1,0-9.24-4.14-9.24-9.24s4.14-9.24,9.24-9.24,9.24,4.14,9.24,9.24Zm-23.32,22.89c0,2.51-2.04,4.55-4.55,4.55s-4.55-2.04-4.55-4.55,2.04-4.55,4.55-4.55,4.55,2.04,4.55,4.55Zm-51.47,53.6c0,2.28-1.85,4.12-4.12,4.12s-4.12-1.85-4.12-4.12,1.85-4.12,4.12-4.12,4.12,1.85,4.12,4.12Zm-29.29,1.28c0,3.14-2.55,5.69-5.69,5.69s-5.69-2.55-5.69-5.69,2.55-5.69,5.69-5.69,5.69,2.55,5.69,5.69Zm64.83-34.83c0,4-3.25,7.25-7.25,7.25s-7.25-3.25-7.25-7.25,3.25-7.25,7.25-7.25,7.25,3.25,7.25,7.25Zm-31.85-47.06c0,3.77-3.06,6.82-6.82,6.82-3.77,0-6.82-3.06-6.82-6.82s3.06-6.82,6.82-6.82,6.82,3.06,6.82,6.82Zm-19.9,22.46c0,4.87-3.95,8.81-8.81,8.81s-8.81-3.95-8.81-8.81,3.95-8.81,8.81-8.81,8.81,3.95,8.81,8.81Zm-42.37-16.21c0,3.77-3.06,6.82-6.82,6.82-3.77,0-6.82-3.06-6.82-6.82s3.06-6.82,6.82-6.82,6.82,3.06,6.82,6.82Zm-19.05-26.02c0,7.3-5.92,13.22-13.22,13.22-7.3,0-13.22-5.92-13.22-13.22s5.92-13.22,13.22-13.22,13.22,5.92,13.22,13.22Zm-23.03,36.82c0,3.45-2.8,6.26-6.26,6.26s-6.26-2.8-6.26-6.26,2.8-6.26,6.26-6.26,6.26,2.8,6.26,6.26Zm-21.33-24.03c0,3.69-2.99,6.68-6.68,6.68s-6.68-2.99-6.68-6.68,2.99-6.68,6.68-6.68,6.68,2.99,6.68,6.68Zm-14.22,31.7c0,2.51-2.04,4.55-4.55,4.55s-4.55-2.04-4.55-4.55,2.04-4.55,4.55-4.55,4.55,2.04,4.55,4.55Zm-10.24-12.51c0,5.81-4.71,10.52-10.52,10.52s-10.52-4.71-10.52-10.52,4.71-10.52,10.52-10.52,10.52,4.71,10.52,10.52Zm-27.3,26.02c0,2.91-2.36,5.26-5.26,5.26-2.91,0-5.26-2.36-5.26-5.26s2.36-5.26,5.26-5.26c2.91,0,5.26,2.36,5.26,5.26Zm-19.34-43.79c0,4.79-3.88,8.67-8.67,8.67s-8.67-3.88-8.67-8.67,3.88-8.67,8.67-8.67,8.67,3.88,8.67,8.67Zm-104.06,140.58v-53.08m70.77,125.46l-92.09-92.09v-91.28m130.69,221.17v-67.56m.8,196.24v-127.88l-39.01-39.01v-66.35l-34.38-34.38v-42.83m48.46,207.5l-25.74-25.74v-60.32l-11.26-11.26v-37l-29.76-29.76-.07-59.75m68.43,91.92l14.07-14.07-27.34-27.34v-13.27m-8.44-58.71l-8.04,8.04v73.99l30.16,30.16v237.66m7.64-294.36l-18.6-18.5m41.12,59.51l-22.12-22.12v-96.11m22.92,39.99v103.75l11.66,10.28v223.18m10.05-238.86v-119.18m16.89,36.34v-29.76m271.84,86.86v-94.1m-82.03,349.04v-126.27l82.44-82.44v-47.05m-100.13,20.91l34.38-34.78-.6-88.27m-27.34,197.85v-22.52l30.16-30.16-.2-24.93,19.91-19.7v-48.25m-37.8,133.51h28.95l15.68-15.68m-69.57,190.2v-149.59l66.35-66.35v-12.47l18.3-18.3-.1-25.94-.1-57.1m-113.4,84.45l11.26,10.46v238.86m-.6-202.07l-10.25-9.85m17.29-67.15l32.57-32.57v-34.98m-33.38,45.84l-11.66-11.66v-48.66l-2.66-9.91m-29.11,371.02v-87.66l24.93-24.93v-20.11l12.82-8.43.1-39.02,24.45-22.94v-38.18l-18.69-18.69v-55.3l9.15-9.15m-68.05,328.44v-96.51l11.66-11.66m-73.59-210.31l-21.31-21.31v-41.42m6.03,76.4l-17.69-17.69m53.08,60.27l-36.55-20.25v-19.11l17.07-17.07v-38.43m62.91,185.78l34.74-20.06m-42.78,76.35l23.73-23.73h13.27l7.84-7.84m-56.9,148.99v-65.14l11.26-11.26v-78.01l8.47-4.89v-44.17l18.28-18.28v-42.84l22.41-22.41v-12.17m-73.29,86.05l22.92-22.92v-26.94l19.1-19.1v-14.68m-73.39,204.28l-21.31-21.31m20.51-.4l-24.53-24.53m25.62-30.77l-19.59-17.88m62.73-138.13v-23.52l-26.14-26.14v-14.88m30.96,17.69l10.46,10.46v21.71l-36.59,36.59v40.57l-21.51,22.37v245.5m-49.66-218.76l22.13-34.64-9.66-10.8m32.57,206.29l-44.64-44.64v-145.97m86.46,246.1v-125.46l6.84-6.84v-24.53l-13.87-13.87v-118.02l52.58-52.58v-13.37m-61.63,355.48v-147.18l23.73-23.73v-14.88m-65.55,94.1l26.14,26.14m-24.53-96.91v8.04l27.75,27.75m-12.47,129.08v-56.3l13.27-13.27v-129.89l6.64-6.64m-256.99,1.3c0,2.91,2.36,5.26,5.26,5.26,2.91,0,5.26-2.36,5.26-5.26s-2.36-5.26-5.26-5.26-5.26,2.36-5.26,5.26Zm-56.87-72.51c0,4,3.25,7.25,7.25,7.25s7.25-3.25,7.25-7.25-3.25-7.25-7.25-7.25-7.25,3.25-7.25,7.25Zm1.42,38.67c0,2.75,2.23,4.98,4.98,4.98s4.98-2.23,4.98-4.98-2.23-4.98-4.98-4.98-4.98,2.23-4.98,4.98Zm24.74,109.05c0,1.88,1.53,3.41,3.41,3.41s3.41-1.53,3.41-3.41-1.53-3.41-3.41-3.41-3.41,1.53-3.41,3.41Zm-29-39.52c0,2.67,2.16,4.83,4.83,4.83s4.83-2.16,4.83-4.83-2.16-4.83-4.83-4.83-4.83,2.16-4.83,4.83Zm.85-43.65c0,2.91,2.36,5.26,5.26,5.26,2.91,0,5.26-2.36,5.26-5.26s-2.36-5.26-5.26-5.26-5.26,2.36-5.26,5.26Zm-103.5-8.39c0,2.83,2.29,5.12,5.12,5.12,2.83,0,5.12-2.29,5.12-5.12s-2.29-5.12-5.12-5.12-5.12,2.29-5.12,5.12Zm-26.73-157.53c0,7.07-7.07,0,0,0s0,7.07,0,0c0-7.07,7.07,0,0,0s0-7.07,0,0Zm16.78,17.2c0,2.75,2.23,4.98,4.98,4.98s4.98-2.23,4.98-4.98-2.23-4.98-4.98-4.98-4.98,2.23-4.98,4.98Zm19.9,19.48c0,3.77,3.06,6.82,6.82,6.82,3.77,0,6.82-3.06,6.82-6.82s-3.06-6.82-6.82-6.82-6.82,3.06-6.82,6.82Zm19.9-54.17c0,5.1,4.14,9.24,9.24,9.24s9.24-4.14,9.24-9.24-4.14-9.24-9.24-9.24-9.24,4.14-9.24,9.24Zm23.32,22.89c0,2.51,2.04,4.55,4.55,4.55s4.55-2.04,4.55-4.55-2.04-4.55-4.55-4.55-4.55,2.04-4.55,4.55Zm51.47,53.6c0,2.28,1.85,4.12,4.12,4.12s4.12-1.85,4.12-4.12c0-2.28-1.85-4.12-4.12-4.12s-4.12,1.85-4.12,4.12Zm29.29,1.28c0,3.14,2.55,5.69,5.69,5.69s5.69-2.55,5.69-5.69-2.55-5.69-5.69-5.69c-3.14,0-5.69,2.55-5.69,5.69Zm-64.83-34.83c0,4,3.25,7.25,7.25,7.25,4,0,7.25-3.25,7.25-7.25s-3.25-7.25-7.25-7.25-7.25,3.25-7.25,7.25Zm31.85-47.06c0,3.77,3.06,6.82,6.82,6.82s6.82-3.06,6.82-6.82-3.06-6.82-6.82-6.82-6.82,3.06-6.82,6.82Zm19.9,22.46c0,4.87,3.95,8.81,8.81,8.81s8.81-3.95,8.81-8.81-3.95-8.81-8.81-8.81-8.81,3.95-8.81,8.81Zm42.37-16.21c0,3.77,3.06,6.82,6.82,6.82s6.82-3.06,6.82-6.82-3.06-6.82-6.82-6.82-6.82,3.06-6.82,6.82Zm-190.11,110.29v-94.1m21.71,79.62v-57.91m60.32,327.33v-126.27l-82.44-82.44v-47.05m100.13,20.91l-34.38-34.78.6-88.27m27.34,197.85v-22.52l-30.16-30.16.2-24.93-19.91-19.7v-48.25m37.8,133.51h-28.95l-15.68-15.68m69.57,190.2v-149.59l-66.35-66.35v-12.47l-18.3-18.3v-26.74m102.34,39.41l11.26-11.26m-9.65,46.65l9.25-9.25m-10.86-27.75v239.67m-6.43-279.07l-32.57-32.57v-34.98m76.81,346.63v-87.66l-24.93-24.93v-20.11l-12.82-7.73v-39.12l-24.55-23.55v-38.18l18.69-18.69v-55.3l-9.15-9.15m9.34,23.63l11.66-11.66v-48.66l2.66-9.91m44.39,375.04v-96.51l-11.66-11.66m10.05-63.13l-34.74-20.06m42.78,76.35l-23.73-23.73h-13.27l-7.84-7.84m56.9,148.99v-65.14l-11.26-11.26v-78.01l-8.47-4.89v-44.17l-18.28-18.28v-42.84l-22.41-22.41v-12.17m73.29,86.05l-22.92-22.92v-26.94l-19.1-19.1v-14.68m25.13-75.6l-10.46,10.46v21.71l36.59,36.59m-15.68,306.02v-125.46l-6.84-6.84v-24.53l13.87-13.87v-118.02l-52.58-52.58v-13.37m61.63,355.48v-147.18l-23.73-23.73v-14.88"/>
          <polygon class="cls-4" points="1861.56 1056.8 1860.14 1070.45 1868.24 1088.22 1868.95 1106.71 1849.76 1125.19 1842.65 1109.98 1829.71 1101.16 1796.3 1111.4 1753.51 1107.13 1741.85 1089.5 1687.97 1044.86 1667.07 995.95 1662.8 952.88 1687.97 919.61 1723.65 901.27 1696.64 881.36 1754.36 893.59 1774.41 852.79 1851.18 832.31 1930.8 800.33 1996.2 819.94 2072.83 875.39 2120.17 892.88 2221.26 912.07 2271.02 944.06 2329.74 991.69 2341.25 1044.58 2340.11 1099.03 2316.09 1065.76 2326.75 1023.11 2313.53 998.51 2282.82 979.75 2297.89 1057.09 2325.9 1107.56 2337.84 1172.82 2322.77 1181.35 2327.89 1201.82 2279.55 1201.25 2291.35 1168.69 2280.12 1133.72 2261.07 1112.54 2218.84 1088.37 2184.86 1053.11 2185.86 1107.28 2180.88 1122.77 2145.05 1186.47 2138.09 1186.47 2133.11 1201.96 2077.38 1201.54 2082.5 1188.6 2095.15 1181.2 2122.87 1135.14 2126 1124.76 2118.75 1113.39 2073.4 1092.49 2038.42 1100.45 1976.15 1095.48 1955.82 1087.09 1953.97 1094.05 1969.61 1095.62 1980.84 1107.7 1992.93 1107.99 2010.42 1131.73 2005.87 1149.64 1970.89 1148.79 1944.45 1128.32 1937.34 1175.38 1929.09 1184.47 1918.15 1189.59 1919 1201.11 1871.23 1201.54 1873.93 1183.2 1894.97 1154.33 1885.02 1095.76 1861.56 1056.8"/>
        </g>
      </g>
      <g>
        <g>
          <path class="cls-3" d="m1739.28,984.01v6.58c-1.59.64-3.17,1.3-4.77,1.92-.39.15-.59.38-.7.78-.47,1.81-1.18,3.52-2.12,5.13-.2.34-.21.63-.05.99.63,1.46,1.23,2.94,1.86,4.4.16.37.1.61-.18.89-1.27,1.25-2.54,2.51-3.79,3.79-.32.32-.59.35-.98.17-1.45-.65-2.92-1.27-4.37-1.92-.34-.15-.61-.16-.94.03-1.64.97-3.38,1.69-5.22,2.18-.36.1-.57.29-.7.63-.58,1.48-1.18,2.95-1.76,4.44-.14.37-.35.51-.75.51-1.8-.02-3.61-.02-5.41,0-.4,0-.6-.15-.75-.51-.56-1.41-1.15-2.81-1.7-4.23-.18-.45-.42-.7-.91-.83-1.79-.47-3.48-1.19-5.07-2.13-.33-.2-.6-.19-.94-.04-1.44.64-2.89,1.24-4.33,1.88-.41.19-.69.16-1.02-.18-1.22-1.26-2.46-2.5-3.71-3.71-.36-.35-.38-.64-.19-1.07.65-1.43,1.25-2.89,1.89-4.33.15-.34.16-.61-.04-.94-.95-1.61-1.65-3.32-2.13-5.13-.11-.42-.32-.66-.73-.82-1.45-.56-2.89-1.16-4.34-1.72-.39-.15-.54-.36-.53-.78.02-1.79.02-3.57,0-5.36,0-.43.15-.63.54-.78,1.43-.56,2.84-1.17,4.27-1.74.38-.15.6-.37.7-.77.46-1.81,1.18-3.52,2.12-5.13.2-.34.22-.63.06-.99-.63-1.44-1.21-2.9-1.84-4.35-.17-.4-.13-.67.19-.98,1.27-1.23,2.52-2.48,3.75-3.75.31-.32.58-.36.97-.19,1.47.66,2.95,1.28,4.43,1.92.27.12.51.18.8.01,1.7-1,3.52-1.73,5.42-2.25.24-.06.42-.17.51-.41.67-1.69,1.33-3.39,2-5.08,2.19,0,4.39,0,6.58,0,.64,1.59,1.29,3.18,1.92,4.77.15.39.38.59.78.7,1.8.48,3.52,1.18,5.13,2.12.34.2.63.21.99.05,1.44-.62,2.9-1.21,4.35-1.84.4-.18.67-.12.98.2,1.24,1.26,2.48,2.52,3.75,3.75.32.31.35.58.18.98-.66,1.47-1.28,2.95-1.92,4.43-.12.27-.17.51,0,.8,1,1.7,1.74,3.51,2.25,5.42.07.26.21.44.46.53,1.68.66,3.36,1.32,5.03,1.98Zm-13.63,3.28c-.12-7.52-5.95-13.5-13.52-13.5-7.58,0-13.57,5.97-13.53,13.58.04,7.57,6,13.44,13.5,13.45,7.57,0,13.45-5.96,13.56-13.52Z"/>
          <path class="cls-3" d="m1712.11,995.62c-4.64,0-8.32-3.68-8.32-8.31,0-4.67,3.68-8.34,8.35-8.33,4.64,0,8.3,3.69,8.29,8.34,0,4.64-3.68,8.31-8.33,8.31Z"/>
        </g>
        <g>
          <path class="cls-1" d="m1943.87,1005.58c0,6.61-5.36,11.96-11.96,11.96-6.61,0-11.96-5.36-11.96-11.96s5.36-11.96,11.96-11.96,11.96,5.36,11.96,11.96Z"/>
          <path class="cls-1" d="m2171.74,975.93c0,6.61-5.36,11.96-11.96,11.96-6.61,0-11.96-5.36-11.96-11.96s5.36-11.96,11.96-11.96,11.96,5.36,11.96,11.96Z"/>
          <path class="cls-1" d="m2125.52,1183.45c0,6.61-5.36,11.96-11.96,11.96-6.61,0-11.96-5.36-11.96-11.96s5.36-11.96,11.96-11.96,11.96,5.36,11.96,11.96Z"/>
          <path class="cls-1" d="m1823.1,1031.74c0,3.3-2.68,5.98-5.98,5.98-3.3,0-5.98-2.68-5.98-5.98s2.68-5.98,5.98-5.98,5.98,2.68,5.98,5.98Z"/>
          <path class="cls-1" d="m2030.16,1053.07c0,3.3-2.68,5.98-5.98,5.98-3.3,0-5.98-2.68-5.98-5.98s2.68-5.98,5.98-5.98,5.98,2.68,5.98,5.98Z"/>
          <path class="cls-1" d="m2286.28,1042.22c0,3.3-2.68,5.98-5.98,5.98-3.3,0-5.98-2.68-5.98-5.98s2.68-5.98,5.98-5.98,5.98,2.68,5.98,5.98Z"/>
        </g>
      </g>
      <text class="cls-8" transform="translate(1835.35 1003.21)"><tspan x="0" y="0">UWIN</tspan></text>
      <g>
        <circle class="cls-6" cx="1848.29" cy="985.07" r="5.54"/>
        <circle class="cls-6" cx="1870.32" cy="1007.55" r="7.66"/>
        <circle class="cls-6" cx="1911.08" cy="991.54" r="5.43"/>
        <circle class="cls-6" cx="2049.49" cy="989.75" r="7.57"/>
        <circle class="cls-6" cx="2094.43" cy="1007.42" r="9.53"/>
        <circle class="cls-6" cx="2122.74" cy="988.33" r="5.48"/>
      </g>
    </g>
  </g>
</svg>