<?xml version="1.0" encoding="UTF-8"?>
<svg id="Bison" xmlns="http://www.w3.org/2000/svg" xmlns:xlink="http://www.w3.org/1999/xlink" viewBox="0 0 4373.4 2301.14">
  <defs>
    <style>
      .cls-1 {
        stroke-width: 11px;
      }

      .cls-1, .cls-2 {
        stroke: #ff9f1c;
        stroke-linecap: round;
        stroke-miterlimit: 7.99;
      }

      .cls-1, .cls-3, .cls-4 {
        fill: none;
      }

      .cls-2 {
        stroke-width: 2.64px;
      }

      .cls-2, .cls-5 {
        fill: #ff9f1c;
      }

      .cls-6 {
        fill: #a41623;
        filter: url(#drop-shadow-1);
      }

      .cls-4 {
        clip-path: url(#clippath);
      }
    </style>
    <filter id="drop-shadow-1" filterUnits="userSpaceOnUse">
      <feOffset dx="-5" dy="5"/>
      <feGaussianBlur result="blur" stdDeviation="5"/>
      <feFlood flood-color="#000" flood-opacity=".5"/>
      <feComposite in2="blur" operator="in"/>
      <feComposite in="SourceGraphic"/>
    </filter>
    <clipPath id="clippath">
      <path id="path6658-2" data-name="path6658" class="cls-3" d="m1529.89,1188.95l-4.79,45.97,27.29,59.85,2.39,62.25-64.64,62.25-23.94-51.23-43.57-29.69-112.52,34.47-144.12-14.36-39.26-59.37-181.47-150.35-70.39-164.71-14.36-145.08,84.75-112.04,120.18-61.77-90.98-67.03,194.4,41.18,67.51-137.42,258.56-68.95,268.14-107.73,220.26,66.08,258.08,186.74,159.45,58.89,340.44,64.64,167.59,107.73,197.75,160.4,38.78,178.12-3.83,183.39-80.92-112.04,35.91-143.65-44.53-82.84-103.42-63.2,50.75,260.48,94.33,169.98,40.22,219.78-50.75,28.73,17.24,68.95-162.8-1.92,39.74-109.65-37.83-117.79-64.16-71.34-142.21-81.4-114.44-118.75,3.35,182.43-16.76,52.19-120.66,214.51h-23.46l-16.76,52.19-187.7-1.44,17.24-43.57,42.61-24.9,93.37-155.14,10.53-34.95-24.42-38.31-152.74-70.39-117.79,26.81-209.72-16.76-68.47-28.25-6.22,23.46,52.67,5.27,37.83,40.7,40.7.96,58.89,79.96-15.32,60.33-117.79-2.87-89.06-68.95-23.94,158.49-27.77,30.64-36.87,17.24,2.87,38.78-160.88,1.44,9.1-61.77,70.86-97.2-33.52-197.27-79-131.2Z"/>
    </clipPath>
  </defs>
  <g id="g6662">
    <g id="g8855">
      <path id="path6658" class="cls-6" d="m1529.73,1189.06l-4.79,45.97,27.29,59.85,2.39,62.25-64.64,62.25-23.94-51.23-43.57-29.69-112.52,34.47-144.12-14.36-39.26-59.37-181.47-150.35-70.39-164.71-14.36-145.08,84.75-112.04,120.18-61.77-90.98-67.03,194.4,41.18,67.51-137.42,258.56-68.95,268.14-107.73,220.26,66.08,258.08,186.74,159.45,58.89,340.44,64.64,167.59,107.73,197.75,160.4,38.78,178.12-3.83,183.39-80.92-112.04,35.91-143.65-44.53-82.84-103.42-63.2,50.75,260.48,94.33,169.98,40.22,219.78-50.75,28.73,17.24,68.95-162.8-1.92,39.74-109.65-37.83-117.79-64.16-71.34-142.21-81.4-114.44-118.75,3.35,182.43-16.76,52.19-120.66,214.51h-23.46l-16.76,52.19-187.7-1.44,17.24-43.57,42.61-24.9,93.37-155.14,10.53-34.95-24.42-38.31-152.74-70.39-117.79,26.81-209.72-16.76-68.47-28.25-6.22,23.46,52.67,5.27,37.83,40.7,40.7.96,58.89,79.96-15.32,60.33-117.79-2.87-89.06-68.95-23.94,158.49-27.77,30.64-36.87,17.24,2.87,38.78-160.88,1.44,9.1-61.77,70.86-97.2-33.52-197.27-79-131.2Z"/>
      <g class="cls-4">
        <g>
          <path id="path6660" class="cls-1" d="m1811.43,1018.87c0,22.25-18.04,40.29-40.29,40.29-22.25,0-40.29-18.04-40.29-40.29s18.04-40.29,40.29-40.29,40.29,18.04,40.29,40.29Zm48.75,219.74c0,9.35-7.58,16.93-16.93,16.93-9.35,0-16.93-7.58-16.93-16.93s7.58-16.93,16.93-16.93c9.35,0,16.93,7.58,16.93,16.93Zm74.49-128.32c0,16.64-13.49,30.13-30.13,30.13-16.64,0-30.13-13.49-30.13-30.13s13.49-30.13,30.13-30.13c16.64,0,30.13,13.49,30.13,30.13Zm54.17,60.61c0,12.34-10,22.35-22.35,22.35-12.34,0-22.35-10-22.35-22.35s10-22.35,22.35-22.35c12.34,0,22.35,10,22.35,22.35Zm128.66-126.29c0,17.02-13.79,30.81-30.81,30.81s-30.81-13.79-30.81-30.81,13.79-30.81,30.81-30.81,30.81,13.79,30.81,30.81Zm-12.19,205.18c0,8.04-6.52,14.56-14.56,14.56-8.04,0-14.56-6.52-14.56-14.56s6.52-14.56,14.56-14.56c8.04,0,14.56,6.52,14.56,14.56Zm-.68-72.12c0,11.97-9.7,21.67-21.67,21.67-11.97,0-21.67-9.7-21.67-21.67s9.7-21.67,21.67-21.67,21.67,9.7,21.67,21.67Zm120.87,386.15c0,7.95-6.44,14.39-14.39,14.39s-14.39-6.44-14.39-14.39,6.44-14.39,14.39-14.39,14.39,6.44,14.39,14.39Zm133.67-172.44c0,7.8-6.32,14.13-14.12,14.13s-14.12-6.32-14.12-14.13,6.32-14.13,14.12-14.13,14.12,6.32,14.12,14.13Zm59.85,570.03c0,11.9-9.65,21.55-21.55,21.55s-21.55-9.65-21.55-21.55,9.65-21.55,21.55-21.55,21.55,9.65,21.55,21.55Zm-10.53-76.61c0,7.14-5.79,12.93-12.93,12.93s-12.93-5.79-12.93-12.93,5.79-12.93,12.93-12.93,12.93,5.79,12.93,12.93Zm-12.45-93.37c0,13.22-10.72,23.94-23.94,23.94-13.22,0-23.94-10.72-23.94-23.94s10.72-23.94,23.94-23.94,23.94,10.72,23.94,23.94h0Zm34.48-68.95c0,8.46-6.86,15.32-15.32,15.32s-15.32-6.86-15.32-15.32,6.86-15.32,15.32-15.32c8.46,0,15.32,6.86,15.32,15.32Zm-5.75-103.9c0,19.3-15.65,34.95-34.95,34.95s-34.95-15.65-34.95-34.95,15.65-34.95,34.95-34.95,34.95,15.65,34.95,34.95Zm135.98-28.25c0,8.46-6.86,15.32-15.32,15.32-8.46,0-15.32-6.86-15.32-15.32s6.86-15.32,15.32-15.32,15.32,6.86,15.32,15.32Zm88.1,50.28c0,9.78-7.93,17.72-17.72,17.72s-17.72-7.93-17.72-17.72,7.93-17.72,17.72-17.72,17.72,7.93,17.72,17.72Zm191.53-244.2c0,13.49-10.93,24.42-24.42,24.42-13.49,0-24.42-10.93-24.42-24.42s10.93-24.42,24.42-24.42c13.49,0,24.42,10.93,24.42,24.42Zm-4.79,130.24c0,9.26-7.5,16.76-16.76,16.76s-16.76-7.5-16.76-16.76,7.5-16.76,16.76-16.76,16.76,7.5,16.76,16.76Zm-83.31,367.25c0,6.35-5.15,11.49-11.49,11.49s-11.49-5.15-11.49-11.49,5.15-11.49,11.49-11.49,11.49,5.15,11.49,11.49Zm97.68-133.11c0,8.99-7.29,16.28-16.28,16.28s-16.28-7.29-16.28-16.28,7.29-16.28,16.28-16.28,16.28,7.29,16.28,16.28Zm-2.87-147c0,9.78-7.93,17.72-17.72,17.72s-17.72-7.93-17.72-17.72,7.93-17.72,17.72-17.72c9.78,0,17.72,7.93,17.72,17.72Zm348.58-28.25c0,9.52-7.72,17.24-17.24,17.24-9.52,0-17.24-7.72-17.24-17.24s7.72-17.24,17.24-17.24c9.52,0,17.24,7.72,17.24,17.24Zm133.11-573.62c0,23.8-19.29,43.09-43.09,43.09s-43.09-19.29-43.09-43.09,19.29-43.09,43.09-43.09,43.09,19.29,43.09,43.09Zm-99.59,101.03c0,9.26-7.5,16.76-16.76,16.76s-16.76-7.5-16.76-16.76,7.5-16.76,16.76-16.76c9.26,0,16.76,7.5,16.76,16.76Zm-67.03,65.6c0,12.69-10.29,22.98-22.98,22.98s-22.98-10.29-22.98-22.98,10.29-22.98,22.98-22.98,22.98,10.29,22.98,22.98Zm-67.03-182.43c0,17.19-13.93,31.12-31.12,31.12-17.19,0-31.12-13.93-31.12-31.12s13.93-31.12,31.12-31.12,31.12,13.93,31.12,31.12Zm-78.53,77.09c0,8.46-6.86,15.32-15.32,15.32s-15.32-6.86-15.32-15.32,6.86-15.32,15.32-15.32,15.32,6.86,15.32,15.32Zm-173.33,180.51c0,7.67-6.22,13.89-13.89,13.89s-13.89-6.22-13.89-13.89,6.22-13.89,13.89-13.89,13.89,6.22,13.89,13.89Zm-98.64,4.31c0,10.58-8.58,19.15-19.15,19.15s-19.15-8.57-19.15-19.15,8.57-19.15,19.15-19.15,19.15,8.57,19.15,19.15Zm218.34-117.31c0,13.49-10.93,24.42-24.42,24.42s-24.42-10.93-24.42-24.42,10.93-24.42,24.42-24.42,24.42,10.93,24.42,24.42Zm-107.26-158.49c0,12.69-10.29,22.98-22.98,22.98-12.69,0-22.98-10.29-22.98-22.98s10.29-22.98,22.98-22.98,22.98,10.29,22.98,22.98Zm-67.03,75.65c0,16.4-13.29,29.69-29.69,29.69s-29.69-13.29-29.69-29.69,13.29-29.69,29.69-29.69,29.69,13.29,29.69,29.69Zm-142.69-54.59c0,12.69-10.29,22.98-22.98,22.98-12.69,0-22.98-10.29-22.98-22.98s10.29-22.98,22.98-22.98,22.98,10.29,22.98,22.98Zm-64.16-87.62c0,24.59-19.94,44.53-44.53,44.53-24.59,0-44.53-19.94-44.53-44.53s19.94-44.53,44.53-44.53,44.53,19.94,44.53,44.53Zm-77.57,124.01c0,11.64-9.43,21.07-21.07,21.07s-21.07-9.43-21.07-21.07,9.43-21.07,21.07-21.07,21.07,9.43,21.07,21.07Zm-71.82-80.92c0,12.43-10.08,22.5-22.5,22.5s-22.5-10.08-22.5-22.5,10.08-22.5,22.5-22.5,22.5,10.08,22.5,22.5Zm-47.88,106.78c0,8.46-6.86,15.32-15.32,15.32s-15.32-6.86-15.32-15.32,6.86-15.32,15.32-15.32,15.32,6.86,15.32,15.32Zm-34.47-42.14c0,19.57-15.86,35.43-35.43,35.43s-35.43-15.86-35.43-35.43,15.86-35.43,35.43-35.43,35.43,15.86,35.43,35.43Zm-91.93,87.62c0,9.78-7.93,17.72-17.72,17.72-9.78,0-17.72-7.93-17.72-17.72s7.93-17.72,17.72-17.72c9.78,0,17.72,7.93,17.72,17.72Zm-65.12-147.48c0,16.13-13.08,29.21-29.21,29.21s-29.21-13.08-29.21-29.21,13.08-29.21,29.21-29.21,29.21,13.08,29.21,29.21Zm-350.45,473.47v-178.77m238.36,422.54l-310.13-310.14v-307.43m440.15,744.87v-227.52m2.71,660.9v-430.67l-131.37-131.37v-223.46l-115.79-115.79v-144.23m163.19,698.82l-86.68-86.68v-203.15l-37.92-37.92v-124.6l-100.22-100.22-.24-201.23m230.47,309.57l47.4-47.4-92.09-92.09v-44.69m-28.44-197.73l-27.09,27.09v249.19l101.57,101.57v800.39m25.73-991.35l-62.64-62.3m138.48,200.44l-74.49-74.49v-323.68m77.2,134.68v349.41l39.27,34.61v751.64m33.86-804.45v-401.38m56.88,122.4v-100.22m915.51,292.53v-316.91m-276.28,1175.53v-425.25l277.63-277.63v-158.45m-337.22,70.42l115.79-117.15-2.03-297.27m-92.09,666.32v-75.84l101.57-101.57-.68-83.97,67.04-66.36v-162.52m-127.3,449.63h97.51l52.82-52.82m-234.29,640.58v-503.8l223.46-223.46v-41.98l61.62-61.62-.34-87.35-.34-192.31m-381.91,284.4l37.92,35.21v804.45m-2.03-680.54l-34.53-33.18m58.23-226.17l109.7-109.7v-117.82m-112.41,154.39l-39.27-39.27v-163.87l-8.94-33.37m-98.05,1249.54v-295.24l83.97-83.97v-67.72l43.19-28.4.34-131.4,82.35-77.27v-128.59l-62.94-62.94v-186.25l30.83-30.83m-229.2,1106.14v-325.03l39.27-39.27m-247.84-708.3l-71.78-71.78v-139.49m20.31,257.32l-59.59-59.59m178.77,202.98l-123.08-68.19v-64.37l57.48-57.48v-129.42m211.87,625.69l116.99-67.54m-144.07,257.15l79.9-79.9h44.69l26.41-26.41m-191.63,501.77v-219.4l37.92-37.92v-262.73l28.52-16.47v-148.76l61.58-61.58v-144.28l75.48-75.48v-40.99m-246.84,289.82l77.2-77.2v-90.74l64.33-64.33v-49.43m-247.16,687.98l-71.78-71.78m69.07-1.35l-82.61-82.61m86.29-103.64l-65.98-60.23m211.27-465.2v-79.23l-88.03-88.03v-50.11m104.28,59.59l35.21,35.21v73.13l-123.24,123.24v136.62l-72.46,75.33v826.8m-167.26-736.74l74.53-116.66-32.54-36.37m109.7,694.76l-150.33-150.33v-491.61m291.17,828.83v-422.54l23.02-23.02v-82.61l-46.72-46.72v-397.49l177.07-177.07v-45.03m-207.55,1197.2v-495.67l79.9-79.9v-50.11m-220.75,316.91l88.03,88.03m-82.61-326.39v27.09l93.45,93.45m-41.98,434.73v-189.6l44.69-44.69v-437.44l22.35-22.35m-865.52,4.39c0,9.78,7.93,17.72,17.72,17.72,9.78,0,17.72-7.93,17.72-17.72s-7.93-17.72-17.72-17.72-17.72,7.93-17.72,17.72Zm-191.53-244.2c0,13.49,10.93,24.42,24.42,24.42s24.42-10.93,24.42-24.42-10.93-24.42-24.42-24.42-24.42,10.93-24.42,24.42Zm4.79,130.24c0,9.26,7.5,16.76,16.76,16.76s16.76-7.5,16.76-16.76-7.5-16.76-16.76-16.76-16.76,7.5-16.76,16.76Zm83.31,367.25c0,6.35,5.15,11.49,11.49,11.49s11.49-5.15,11.49-11.49-5.14-11.49-11.49-11.49-11.49,5.15-11.49,11.49Zm-97.68-133.11c0,8.99,7.29,16.28,16.28,16.28s16.28-7.29,16.28-16.28-7.29-16.28-16.28-16.28-16.28,7.29-16.28,16.28Zm2.87-147c0,9.78,7.93,17.72,17.72,17.72,9.78,0,17.72-7.93,17.72-17.72s-7.93-17.72-17.72-17.72-17.72,7.93-17.72,17.72Zm-348.58-28.25c0,9.52,7.72,17.24,17.24,17.24,9.52,0,17.24-7.72,17.24-17.24s-7.72-17.24-17.24-17.24-17.24,7.72-17.24,17.24Zm-90.02-530.53c0,23.8-23.8,0,0,0s0,23.8,0,0c0-23.8,23.8,0,0,0s0-23.8,0,0Zm56.5,57.94c0,9.26,7.5,16.76,16.76,16.76s16.76-7.5,16.76-16.76-7.5-16.76-16.76-16.76-16.76,7.5-16.76,16.76Zm67.03,65.6c0,12.69,10.29,22.98,22.98,22.98,12.69,0,22.98-10.29,22.98-22.98s-10.29-22.98-22.98-22.98-22.98,10.29-22.98,22.98Zm67.03-182.43c0,17.19,13.93,31.12,31.12,31.12s31.12-13.93,31.12-31.12-13.93-31.12-31.12-31.12-31.12,13.93-31.12,31.12Zm78.53,77.09c0,8.46,6.86,15.32,15.32,15.32s15.32-6.86,15.32-15.32-6.86-15.32-15.32-15.32-15.32,6.86-15.32,15.32Zm173.33,180.51c0,7.67,6.22,13.89,13.89,13.89s13.89-6.22,13.89-13.89c0-7.67-6.22-13.89-13.89-13.89s-13.89,6.22-13.89,13.89Zm98.64,4.31c0,10.58,8.57,19.15,19.15,19.15s19.15-8.57,19.15-19.15-8.57-19.15-19.15-19.15c-10.58,0-19.15,8.57-19.15,19.15Zm-218.34-117.31c0,13.49,10.93,24.42,24.42,24.42,13.49,0,24.42-10.93,24.42-24.42s-10.93-24.42-24.42-24.42-24.42,10.93-24.42,24.42Zm107.25-158.49c0,12.69,10.29,22.98,22.98,22.98s22.98-10.29,22.98-22.98-10.29-22.98-22.98-22.98-22.98,10.29-22.98,22.98Zm67.03,75.65c0,16.4,13.29,29.69,29.69,29.69s29.69-13.29,29.69-29.69-13.29-29.69-29.69-29.69-29.69,13.29-29.69,29.69Zm142.69-54.59c0,12.69,10.29,22.98,22.98,22.98s22.98-10.29,22.98-22.98-10.29-22.98-22.98-22.98-22.98,10.29-22.98,22.98Zm-640.28,371.43v-316.91m73.13,268.15v-195.02m203.15,1102.4v-425.25l-277.63-277.63v-158.45m337.22,70.42l-115.79-117.15,2.03-297.27m92.09,666.32v-75.84l-101.57-101.57.68-83.97-67.04-66.36v-162.52m127.3,449.63h-97.51l-52.82-52.82m234.29,640.58v-503.8l-223.46-223.46v-41.98l-61.62-61.62v-90.06m344.67,132.72l37.92-37.92m-32.5,157.1l31.15-31.15m-36.57-93.45v807.16m-21.67-939.88l-109.7-109.7v-117.82m258.67,1167.41v-295.24l-83.97-83.97v-67.72l-43.19-26.03v-131.74l-82.69-79.3v-128.59l62.94-62.94v-186.25l-30.83-30.83m31.47,79.58l39.27-39.27v-163.87l8.94-33.37m149.51,1263.08v-325.03l-39.27-39.27m33.86-212.63l-116.99-67.54m144.07,257.15l-79.9-79.9h-44.69l-26.41-26.41m191.63,501.77v-219.4l-37.92-37.92v-262.73l-28.52-16.47v-148.76l-61.58-61.58v-144.28l-75.48-75.48v-40.99m246.84,289.82l-77.2-77.2v-90.74l-64.33-64.33v-49.43m84.64-254.61l-35.21,35.21v73.13l123.24,123.24m-52.82,1030.62v-422.54l-23.02-23.02v-82.61l46.72-46.72v-397.49l-177.07-177.07v-45.03m207.55,1197.2v-495.67l-79.9-79.9v-50.11"/>
          <polygon class="cls-3" points="1529.89 1188.95 1525.1 1234.92 1552.39 1294.77 1554.78 1357.02 1490.14 1419.26 1466.2 1368.03 1422.63 1338.34 1310.11 1372.82 1165.98 1358.45 1126.72 1299.08 945.25 1148.73 874.86 984.02 860.5 838.94 945.25 726.89 1065.43 665.13 974.46 598.09 1168.86 639.27 1236.37 501.85 1494.93 432.9 1763.07 325.16 1983.33 391.24 2241.41 577.98 2400.86 636.88 2741.29 701.52 2908.88 809.25 3106.63 969.65 3145.42 1147.77 3141.59 1331.16 3060.67 1219.12 3096.58 1075.47 3052.05 992.64 2948.62 929.43 2999.38 1189.91 3093.7 1359.89 3133.92 1579.67 3083.17 1608.4 3100.41 1677.35 2937.61 1675.43 2977.35 1565.78 2939.52 1447.99 2875.36 1376.65 2733.15 1295.25 2618.72 1176.5 2622.07 1358.93 2605.31 1411.12 2484.65 1625.63 2461.19 1625.63 2444.43 1677.82 2256.73 1676.39 2273.97 1632.82 2316.58 1607.92 2409.95 1452.78 2420.49 1417.83 2396.07 1379.52 2243.32 1309.14 2125.53 1335.95 1915.81 1319.19 1847.34 1290.94 1841.12 1314.4 1893.79 1319.67 1931.61 1360.37 1972.31 1361.33 2031.21 1441.29 2015.89 1501.62 1898.1 1498.75 1809.04 1429.8 1785.1 1588.29 1757.32 1618.93 1720.46 1636.17 1723.33 1674.95 1562.45 1676.39 1571.54 1614.62 1642.41 1517.42 1608.89 1320.15 1529.89 1188.95"/>
        </g>
      </g>
      <g>
        <g>
          <path class="cls-5" d="m1118.06,943.79v22.16c-5.35,2.16-10.69,4.36-16.07,6.46-1.3.51-2,1.26-2.35,2.61-1.58,6.09-3.98,11.85-7.15,17.28-.67,1.15-.7,2.12-.18,3.34,2.13,4.92,4.13,9.89,6.26,14.81.54,1.24.34,2.05-.61,2.98-4.29,4.21-8.56,8.46-12.75,12.77-1.06,1.09-1.97,1.17-3.29.58-4.88-2.2-9.82-4.28-14.71-6.48-1.14-.51-2.07-.54-3.17.12-5.52,3.26-11.4,5.68-17.58,7.34-1.23.33-1.92.97-2.37,2.13-1.94,4.99-3.99,9.95-5.92,14.94-.48,1.25-1.18,1.71-2.52,1.7-6.07-.06-12.15-.06-18.22,0-1.35.01-2.03-.49-2.51-1.72-1.87-4.76-3.89-9.47-5.74-14.25-.59-1.53-1.43-2.37-3.07-2.8-6.01-1.59-11.71-4.02-17.07-7.19-1.11-.66-2.03-.64-3.17-.14-4.85,2.14-9.75,4.16-14.58,6.33-1.4.63-2.34.53-3.44-.61-4.11-4.23-8.27-8.41-12.51-12.5-1.21-1.16-1.28-2.14-.62-3.59,2.18-4.83,4.21-9.73,6.35-14.57.5-1.13.52-2.06-.13-3.17-3.19-5.42-5.57-11.19-7.18-17.26-.37-1.41-1.09-2.23-2.45-2.75-4.89-1.88-9.72-3.9-14.62-5.78-1.32-.51-1.81-1.22-1.8-2.64.07-6.01.07-12.03,0-18.05-.02-1.43.51-2.12,1.81-2.63,4.82-1.9,9.58-3.94,14.4-5.85,1.28-.51,2.01-1.24,2.36-2.6,1.56-6.09,3.99-11.84,7.14-17.28.66-1.14.74-2.12.21-3.34-2.11-4.86-4.08-9.78-6.19-14.64-.58-1.34-.44-2.24.63-3.29,4.27-4.15,8.48-8.37,12.63-12.63,1.04-1.07,1.94-1.22,3.28-.62,4.95,2.21,9.94,4.31,14.91,6.48.91.4,1.72.61,2.69.04,5.74-3.36,11.84-5.84,18.25-7.58.8-.22,1.41-.59,1.73-1.39,2.24-5.71,4.49-11.41,6.73-17.11,7.39,0,14.77,0,22.16,0,2.16,5.35,4.35,10.69,6.45,16.07.51,1.3,1.28,1.99,2.62,2.35,6.07,1.6,11.85,3.98,17.27,7.15,1.15.67,2.13.7,3.34.17,4.86-2.1,9.78-4.08,14.64-6.19,1.36-.59,2.26-.39,3.28.66,4.16,4.26,8.37,8.48,12.64,12.63,1.09,1.06,1.19,1.96.6,3.29-2.21,4.95-4.31,9.94-6.48,14.9-.4.92-.59,1.71-.02,2.68,3.36,5.73,5.87,11.83,7.58,18.25.24.89.7,1.47,1.55,1.8,5.65,2.21,11.3,4.44,16.95,6.66Zm-45.9,11.05c-.4-25.34-20.03-45.45-45.54-45.48-25.52-.03-45.69,20.11-45.57,45.72.12,25.48,20.22,45.27,45.45,45.31,25.51.03,45.28-20.06,45.66-45.54Z"/>
          <path class="cls-5" d="m1026.55,982.9c-15.63,0-28.01-12.38-28.02-28,0-15.72,12.39-28.09,28.13-28.06,15.61.03,27.94,12.43,27.93,28.08-.01,15.63-12.4,27.98-28.04,27.98Z"/>
        </g>
        <g>
          <path class="cls-2" d="m1807.1,1016.44c0,22.25-18.04,40.29-40.29,40.29-22.25,0-40.29-18.04-40.29-40.29s18.04-40.29,40.29-40.29,40.29,18.04,40.29,40.29Z"/>
          <path class="cls-2" d="m2576.79,916.57c0,22.25-18.04,40.29-40.29,40.29-22.25,0-40.29-18.04-40.29-40.29s18.04-40.29,40.29-40.29,40.29,18.04,40.29,40.29Z"/>
          <path class="cls-2" d="m2418.85,1615.46c0,22.25-18.04,40.29-40.29,40.29-22.25,0-40.29-18.04-40.29-40.29s18.04-40.29,40.29-40.29,40.29,18.04,40.29,40.29Z"/>
          <path class="cls-2" d="m1400.36,1104.54c0,11.13-9.02,20.15-20.15,20.15-11.13,0-20.15-9.02-20.15-20.15s9.02-20.15,20.15-20.15,20.15,9.02,20.15,20.15Z"/>
          <path class="cls-2" d="m2097.7,1176.38c0,11.13-9.02,20.15-20.15,20.15-11.13,0-20.15-9.02-20.15-20.15s9.02-20.15,20.15-20.15,20.15,9.02,20.15,20.15Z"/>
          <path class="cls-2" d="m2960.29,1139.82c0,11.13-9.02,20.15-20.15,20.15-11.13,0-20.15-9.02-20.15-20.15s9.02-20.15,20.15-20.15,20.15,9.02,20.15,20.15Z"/>
        </g>
      </g>
    </g>
  </g>
</svg>